<svg width="355" height="189" viewBox="0 0 355 189" fill="none" xmlns="http://www.w3.org/2000/svg">
<path d="M31.1791 152.074C25.3565 152.074 19.4546 151.174 13.4733 149.374C13.738 144.134 14.1614 139.264 14.7437 134.765L20.8573 133.574L24.8272 140.323C28.0031 141.434 30.8085 141.99 33.2434 141.99C34.0903 141.99 35.89 141.752 38.6425 141.276C38.7483 140.217 38.8013 139.502 38.8013 139.132C38.8013 137.861 38.5895 136.909 38.1661 136.274C37.7426 135.585 36.8163 134.844 35.3871 134.05C33.958 133.203 31.3908 131.96 27.6856 130.319C23.1334 128.096 19.8516 125.714 17.8402 123.173C15.8288 120.579 14.8231 117.536 14.8231 114.042C14.8231 108.59 16.6757 104.329 20.3809 101.259C24.0862 98.189 29.1676 96.6539 35.6253 96.6539C38.7483 96.6539 41.8448 96.9715 44.9149 97.6067C48.0379 98.189 50.7639 99.0094 53.0929 100.068C52.987 103.032 52.7488 106.711 52.3783 111.104L52.1401 114.518L46.3441 115.392L40.3098 107.69C38.4043 107.108 36.0223 106.817 33.164 106.817C31.3643 106.817 30.0146 106.976 29.1147 107.293C28.8501 108.352 28.7177 109.172 28.7177 109.755C28.7177 110.919 29.0088 111.951 29.5911 112.851C30.1734 113.698 31.2055 114.598 32.6876 115.551C34.1697 116.45 36.3664 117.589 39.2776 118.965C43.5122 120.976 46.7146 122.749 48.8848 124.284C51.055 125.819 52.5636 127.434 53.4105 129.128C54.3103 130.769 54.7602 132.78 54.7602 135.162C54.7602 140.402 52.6694 144.531 48.4878 147.548C44.3062 150.565 38.5366 152.074 31.1791 152.074ZM71.27 152.153C67.6707 152.153 64.7859 151.174 62.6157 149.215C60.4455 147.204 59.3604 144.637 59.3604 141.514C59.3604 137.332 61.4512 134.05 65.6328 131.668C69.8673 129.286 76.0074 127.937 84.0531 127.619C84.0531 125.131 83.8414 123.305 83.4179 122.141C83.0474 120.923 82.3328 120.103 81.2742 119.679C80.2685 119.203 78.707 118.965 76.5897 118.965C74.4195 118.965 72.8845 119.044 71.9846 119.203L68.7293 125.634L62.8539 125.237C61.954 121.003 61.3188 116.609 60.9483 112.057C63.9125 111.051 67.1413 110.257 70.6349 109.675C74.1813 109.093 77.4895 108.802 80.5596 108.802C86.1704 108.802 90.1932 109.913 92.6281 112.137C95.0629 114.307 96.2804 117.933 96.2804 123.014V139.608C96.2804 140.561 96.3598 141.223 96.5186 141.593C96.7303 141.964 97.1538 142.334 97.7889 142.705L100.965 144.531L100.647 149.454C94.5072 150.883 89.6639 151.677 86.1174 151.835C86.0116 151.518 85.8528 150.962 85.6411 150.168C85.4293 149.321 85.2441 148.527 85.0853 147.786C83.0209 149.109 80.7449 150.168 78.2571 150.962C75.8222 151.756 73.4932 152.153 71.27 152.153ZM76.5897 143.181C78.707 143.181 81.2742 142.467 84.2913 141.037L83.9737 135.003C82.7033 134.897 81.8564 134.844 81.433 134.844C80.0038 134.844 78.3365 135.003 76.4309 135.321C74.5254 135.585 73.0168 135.903 71.9052 136.274C71.7464 136.962 71.667 137.597 71.667 138.179C71.667 139.767 72.0905 141.011 72.9374 141.911C73.8372 142.758 75.0547 143.181 76.5897 143.181ZM103.721 143.816L109.279 142.149V118.885L103.721 118.806V111.025L109.279 110.707V105.547C109.279 100.73 110.681 96.998 113.487 94.3514C116.292 91.7048 120.368 90.3815 125.714 90.3815C128.467 90.3815 131.801 90.7256 135.718 91.4137L133.892 102.212C131.563 101.577 129.525 101.153 127.778 100.941C126.085 100.677 124.364 100.571 122.618 100.624V109.993L131.669 109.437V119.203L122.618 119.044V139.529C122.618 140.64 122.697 141.381 122.856 141.752C123.015 142.122 123.464 142.519 124.205 142.943L129.128 145.642L128.89 151.121H103.959L103.721 143.816ZM154.09 152.074C147.897 152.074 143.107 150.195 139.719 146.436C136.384 142.678 134.717 137.491 134.717 130.874C134.717 126.269 135.537 122.326 137.178 119.044C138.819 115.709 141.148 113.169 144.165 111.422C147.182 109.675 150.702 108.802 154.725 108.802C160.707 108.802 165.285 110.707 168.461 114.518C171.69 118.33 173.225 123.755 173.066 130.795L148.929 135.241C149.67 137.464 150.702 139.105 152.026 140.164C153.402 141.17 155.202 141.673 157.425 141.673C158.96 141.673 160.786 141.461 162.903 141.037C165.021 140.561 167.164 139.926 169.335 139.132L171.161 146.992C169.202 148.474 166.661 149.692 163.538 150.645C160.415 151.597 157.266 152.074 154.09 152.074ZM160.045 124.126C159.939 122.114 159.357 120.659 158.298 119.759C157.292 118.806 155.863 118.33 154.011 118.33C152.476 118.33 151.02 118.541 149.644 118.965C148.532 121.558 148.029 124.364 148.135 127.381L160.045 124.126Z" fill="#447BCC"/>
<path d="M195.415 151.439C189.699 151.439 183.982 151.227 178.266 150.803L177.869 143.022L183.665 141.434V111.184C183.665 109.808 183.559 108.908 183.347 108.484C183.135 108.008 182.579 107.584 181.68 107.214L177.551 104.911L178.027 98.3213C186.602 97.2097 193.96 96.6539 200.1 96.6539C207.616 96.6539 213.121 97.7655 216.615 99.9887C220.108 102.212 221.855 105.732 221.855 110.549C221.855 112.931 221.484 115.048 220.743 116.9C220.002 118.7 218.864 120.341 217.329 121.823C222.622 124.205 225.269 128.069 225.269 133.415C225.269 138.179 223.946 142.017 221.299 144.928C218.653 147.839 214.762 149.745 209.628 150.645C207.722 151.174 202.985 151.439 195.415 151.439ZM207.087 119.282C207.616 117.906 207.881 115.604 207.881 112.375C207.881 110.152 207.352 108.511 206.293 107.452C205.287 106.393 203.726 105.811 201.609 105.705C200.232 105.705 198.856 105.758 197.48 105.864V119.124C198.38 119.071 199.544 119.044 200.973 119.044C203.144 119.044 205.181 119.124 207.087 119.282ZM203.752 141.593C206.769 141.593 208.913 141.329 210.183 140.799C210.713 138.682 210.977 136.803 210.977 135.162C210.977 132.515 210.289 130.636 208.913 129.525C207.537 128.413 205.208 127.857 201.926 127.857C201.238 127.857 200.365 127.91 199.306 128.016L197.48 128.096V141.037C199.332 141.408 201.423 141.593 203.752 141.593ZM241.696 152.153C238.097 152.153 235.212 151.174 233.042 149.215C230.872 147.204 229.787 144.637 229.787 141.514C229.787 137.332 231.878 134.05 236.059 131.668C240.294 129.286 246.434 127.937 254.479 127.619C254.479 125.131 254.268 123.305 253.844 122.141C253.474 120.923 252.759 120.103 251.701 119.679C250.695 119.203 249.133 118.965 247.016 118.965C244.846 118.965 243.311 119.044 242.411 119.203L239.156 125.634L233.28 125.237C232.38 121.003 231.745 116.609 231.375 112.057C234.339 111.051 237.568 110.257 241.061 109.675C244.608 109.093 247.916 108.802 250.986 108.802C256.597 108.802 260.62 109.913 263.054 112.137C265.489 114.307 266.707 117.933 266.707 123.014V139.608C266.707 140.561 266.786 141.223 266.945 141.593C267.157 141.964 267.58 142.334 268.215 142.705L271.391 144.531L271.074 149.454C264.934 150.883 260.09 151.677 256.544 151.835C256.438 151.518 256.279 150.962 256.067 150.168C255.856 149.321 255.67 148.527 255.512 147.786C253.447 149.109 251.171 150.168 248.683 150.962C246.249 151.756 243.92 152.153 241.696 152.153ZM247.016 143.181C249.133 143.181 251.701 142.467 254.718 141.037L254.4 135.003C253.13 134.897 252.283 134.844 251.859 134.844C250.43 134.844 248.763 135.003 246.857 135.321C244.952 135.585 243.443 135.903 242.332 136.274C242.173 136.962 242.093 137.597 242.093 138.179C242.093 139.767 242.517 141.011 243.364 141.911C244.264 142.758 245.481 143.181 247.016 143.181ZM290.583 169.224C284.495 169.224 279.89 168.271 276.767 166.365C273.697 164.46 272.162 161.654 272.162 157.949C272.162 154.032 273.962 150.592 277.561 147.627C276.45 146.516 275.894 145.298 275.894 143.975C275.894 142.07 277.138 139.37 279.626 135.877C275.285 133.6 273.115 129.683 273.115 124.126C273.115 119.256 274.756 115.498 278.038 112.851C281.372 110.152 286.163 108.802 292.409 108.802C296.802 108.802 300.401 109.463 303.207 110.787L312.735 107.849H316.466V119.362H310.273C310.538 120.685 310.67 121.982 310.67 123.252C310.67 128.122 309.029 131.827 305.748 134.368C302.466 136.909 297.649 138.179 291.297 138.179C289.127 138.179 287.168 138.02 285.422 137.703V138.814C285.422 139.661 285.766 140.27 286.454 140.64C287.195 140.958 288.756 141.276 291.138 141.593L298.284 142.625C303.895 143.419 307.759 144.796 309.876 146.754C312.046 148.713 313.132 151.227 313.132 154.297C313.132 159.061 311.173 162.739 307.256 165.333C303.339 167.927 297.781 169.224 290.583 169.224ZM292.488 130.398C293.6 130.398 294.87 130.239 296.299 129.922C296.511 129.286 296.696 128.334 296.855 127.063C297.067 125.793 297.173 124.628 297.173 123.57C297.173 121.188 296.643 119.415 295.585 118.25C294.579 117.086 292.991 116.503 290.821 116.503C289.762 116.503 288.598 116.662 287.327 116.98C287.063 117.615 286.824 118.541 286.613 119.759C286.454 120.976 286.374 122.141 286.374 123.252C286.374 125.687 286.877 127.487 287.883 128.651C288.889 129.816 290.424 130.398 292.488 130.398ZM294.235 160.252C296.67 160.252 298.522 160.04 299.793 159.616C300.11 158.981 300.269 158.134 300.269 157.076C300.269 155.805 299.819 154.826 298.919 154.138C298.019 153.503 296.405 153.026 294.076 152.709L291.535 152.312C289.206 152.047 286.851 151.677 284.469 151.2C284.151 152.629 283.993 153.768 283.993 154.614C283.993 156.52 284.839 157.923 286.533 158.823C288.227 159.775 290.794 160.252 294.235 160.252ZM334.042 152.471C329.86 152.471 325.017 151.73 319.512 150.248C319.83 145.06 320.174 141.223 320.544 138.735L325.07 137.861L330.072 143.181C331.819 143.71 333.777 143.975 335.947 143.975C337.165 143.975 338.118 143.896 338.806 143.737C338.964 143.313 339.044 142.731 339.044 141.99C339.044 141.355 338.885 140.826 338.567 140.402C338.303 139.979 337.668 139.476 336.662 138.894C335.656 138.311 333.909 137.412 331.422 136.194C328.299 134.553 325.917 133.098 324.276 131.827C322.635 130.504 321.444 129.154 320.703 127.778C320.015 126.402 319.671 124.761 319.671 122.855C319.671 118.621 321.232 115.26 324.355 112.772C327.531 110.284 331.819 109.04 337.218 109.04C339.441 109.04 341.77 109.305 344.205 109.834C346.692 110.31 348.916 110.972 350.874 111.819C350.874 115.26 350.636 119.097 350.16 123.332L346.031 123.967L340.711 118.25C339.335 117.827 337.324 117.615 334.677 117.615C334.253 117.615 333.407 117.668 332.136 117.774C331.977 118.091 331.898 118.594 331.898 119.282C331.898 120.023 332.11 120.685 332.533 121.267C332.957 121.797 333.698 122.405 334.756 123.093C335.868 123.729 337.615 124.655 339.997 125.872C343.49 127.566 346.11 129.048 347.857 130.319C349.657 131.536 350.901 132.78 351.589 134.05C352.33 135.321 352.7 136.856 352.7 138.655C352.7 142.996 351.033 146.384 347.698 148.818C344.416 151.253 339.864 152.471 334.042 152.471Z" fill="#214F9A"/>
<path d="M13.9545 179.837C14.3459 179.837 14.6696 179.965 14.9256 180.221C15.1966 180.462 15.3321 180.778 15.3321 181.169C15.3321 181.546 15.1966 181.862 14.9256 182.118C14.6696 182.359 14.3459 182.479 13.9545 182.479H6.61465C6.22319 182.479 5.89196 182.351 5.62095 182.095C5.365 181.824 5.23702 181.493 5.23702 181.101V168.048C5.23702 167.656 5.37253 167.333 5.64353 167.077C5.91454 166.806 6.26083 166.67 6.6824 166.67C7.04375 166.67 7.35993 166.806 7.63094 167.077C7.917 167.333 8.06003 167.656 8.06003 168.048V180.221L7.56318 179.837H13.9545ZM26.6586 170.397C27.05 170.397 27.3737 170.532 27.6297 170.803C27.8856 171.059 28.0136 171.383 28.0136 171.774V177.511C28.0136 179.107 27.5695 180.371 26.6812 181.305C25.7928 182.238 24.5131 182.705 22.8419 182.705C21.1706 182.705 19.8909 182.238 19.0026 181.305C18.1293 180.371 17.6927 179.107 17.6927 177.511V171.774C17.6927 171.383 17.8207 171.059 18.0766 170.803C18.3326 170.532 18.6563 170.397 19.0477 170.397C19.4392 170.397 19.7629 170.532 20.0188 170.803C20.2748 171.059 20.4028 171.383 20.4028 171.774V177.511C20.4028 178.429 20.606 179.114 21.0125 179.566C21.4191 180.002 22.0288 180.221 22.8419 180.221C23.6699 180.221 24.2872 180.002 24.6938 179.566C25.1003 179.114 25.3035 178.429 25.3035 177.511V171.774C25.3035 171.383 25.4315 171.059 25.6875 170.803C25.9434 170.532 26.2671 170.397 26.6586 170.397ZM35.7407 170.171C36.3731 170.171 36.9527 170.269 37.4797 170.464C38.0067 170.66 38.4584 170.909 38.8348 171.21C39.2262 171.511 39.5273 171.819 39.7381 172.136C39.964 172.437 40.0769 172.693 40.0769 172.903L39.4897 173.197V171.548C39.4897 171.157 39.6177 170.833 39.8736 170.577C40.1296 170.306 40.4533 170.171 40.8447 170.171C41.2362 170.171 41.5599 170.299 41.8159 170.555C42.0718 170.811 42.1998 171.142 42.1998 171.548V181.598C42.1998 182.908 41.9137 183.955 41.3416 184.738C40.7845 185.536 40.0468 186.108 39.1283 186.454C38.2099 186.815 37.2238 186.996 36.1698 186.996C35.8687 186.996 35.4773 186.958 34.9955 186.883C34.5137 186.808 34.0545 186.717 33.6178 186.612C33.1812 186.507 32.85 186.409 32.6241 186.318C32.1724 186.123 31.8563 185.874 31.6756 185.573C31.51 185.287 31.4799 184.978 31.5853 184.647C31.7208 184.211 31.9391 183.909 32.2402 183.744C32.5413 183.593 32.8575 183.578 33.1887 183.699C33.3393 183.744 33.5877 183.834 33.934 183.97C34.2803 184.105 34.6567 184.226 35.0632 184.331C35.4848 184.451 35.8537 184.512 36.1698 184.512C37.299 184.512 38.1346 184.286 38.6767 183.834C39.2187 183.382 39.4897 182.758 39.4897 181.96V179.995L39.7607 180.198C39.7607 180.394 39.6553 180.635 39.4445 180.921C39.2488 181.192 38.9703 181.463 38.6089 181.734C38.2626 182.005 37.8486 182.238 37.3668 182.434C36.885 182.615 36.3731 182.705 35.8311 182.705C34.7621 182.705 33.7985 182.441 32.9403 181.915C32.0821 181.373 31.4046 180.635 30.9077 179.701C30.4109 178.753 30.1625 177.669 30.1625 176.449C30.1625 175.215 30.4109 174.131 30.9077 173.197C31.4046 172.249 32.0746 171.511 32.9177 170.984C33.7609 170.442 34.7019 170.171 35.7407 170.171ZM36.1698 172.655C35.4923 172.655 34.8976 172.821 34.3857 173.152C33.8738 173.483 33.4748 173.935 33.1887 174.507C32.9027 175.079 32.7596 175.726 32.7596 176.449C32.7596 177.157 32.9027 177.797 33.1887 178.369C33.4748 178.941 33.8738 179.393 34.3857 179.724C34.8976 180.055 35.4923 180.221 36.1698 180.221C36.8624 180.221 37.4647 180.055 37.9766 179.724C38.4885 179.393 38.8874 178.941 39.1735 178.369C39.4596 177.797 39.6026 177.157 39.6026 176.449C39.6026 175.726 39.4596 175.079 39.1735 174.507C38.8874 173.935 38.4885 173.483 37.9766 173.152C37.4647 172.821 36.8624 172.655 36.1698 172.655ZM50.1425 170.171C50.7749 170.171 51.3545 170.269 51.8815 170.464C52.4084 170.66 52.8601 170.909 53.2365 171.21C53.628 171.511 53.9291 171.819 54.1399 172.136C54.3657 172.437 54.4787 172.693 54.4787 172.903L53.8915 173.197V171.548C53.8915 171.157 54.0194 170.833 54.2754 170.577C54.5314 170.306 54.8551 170.171 55.2465 170.171C55.638 170.171 55.9617 170.299 56.2176 170.555C56.4736 170.811 56.6016 171.142 56.6016 171.548V181.598C56.6016 182.908 56.3155 183.955 55.7434 184.738C55.1863 185.536 54.4485 186.108 53.5301 186.454C52.6117 186.815 51.6255 186.996 50.5716 186.996C50.2705 186.996 49.879 186.958 49.3972 186.883C48.9154 186.808 48.4562 186.717 48.0196 186.612C47.583 186.507 47.2517 186.409 47.0259 186.318C46.5742 186.123 46.258 185.874 46.0774 185.573C45.9118 185.287 45.8816 184.978 45.987 184.647C46.1225 184.211 46.3408 183.909 46.642 183.744C46.9431 183.593 47.2593 183.578 47.5905 183.699C47.7411 183.744 47.9895 183.834 48.3358 183.97C48.6821 184.105 49.0585 184.226 49.465 184.331C49.8866 184.451 50.2554 184.512 50.5716 184.512C51.7008 184.512 52.5364 184.286 53.0784 183.834C53.6205 183.382 53.8915 182.758 53.8915 181.96V179.995L54.1625 180.198C54.1625 180.394 54.0571 180.635 53.8463 180.921C53.6506 181.192 53.372 181.463 53.0107 181.734C52.6644 182.005 52.2504 182.238 51.7686 182.434C51.2868 182.615 50.7749 182.705 50.2328 182.705C49.1639 182.705 48.2003 182.441 47.3421 181.915C46.4839 181.373 45.8064 180.635 45.3095 179.701C44.8127 178.753 44.5642 177.669 44.5642 176.449C44.5642 175.215 44.8127 174.131 45.3095 173.197C45.8064 172.249 46.4764 171.511 47.3195 170.984C48.1626 170.442 49.1036 170.171 50.1425 170.171ZM50.5716 172.655C49.8941 172.655 49.2994 172.821 48.7875 173.152C48.2756 173.483 47.8766 173.935 47.5905 174.507C47.3044 175.079 47.1614 175.726 47.1614 176.449C47.1614 177.157 47.3044 177.797 47.5905 178.369C47.8766 178.941 48.2756 179.393 48.7875 179.724C49.2994 180.055 49.8941 180.221 50.5716 180.221C51.2642 180.221 51.8664 180.055 52.3783 179.724C52.8902 179.393 53.2892 178.941 53.5753 178.369C53.8614 177.797 54.0044 177.157 54.0044 176.449C54.0044 175.726 53.8614 175.079 53.5753 174.507C53.2892 173.935 52.8902 173.483 52.3783 173.152C51.8664 172.821 51.2642 172.655 50.5716 172.655ZM69.3122 170.171C69.7036 170.171 70.0273 170.299 70.2833 170.555C70.5392 170.811 70.6672 171.142 70.6672 171.548V181.101C70.6672 181.493 70.5392 181.824 70.2833 182.095C70.0273 182.351 69.7036 182.479 69.3122 182.479C68.9207 182.479 68.597 182.351 68.3411 182.095C68.0851 181.824 67.9571 181.493 67.9571 181.101V179.995L68.454 180.198C68.454 180.394 68.3486 180.635 68.1378 180.921C67.927 181.192 67.6409 181.463 67.2796 181.734C66.9183 182.005 66.4892 182.238 65.9923 182.434C65.5105 182.615 64.9836 182.705 64.4114 182.705C63.3726 182.705 62.4315 182.441 61.5884 181.915C60.7453 181.373 60.0753 180.635 59.5784 179.701C59.0966 178.753 58.8557 177.669 58.8557 176.449C58.8557 175.215 59.0966 174.131 59.5784 173.197C60.0753 172.249 60.7377 171.511 61.5658 170.984C62.3939 170.442 63.3123 170.171 64.3211 170.171C64.9685 170.171 65.5632 170.269 66.1052 170.464C66.6472 170.66 67.114 170.909 67.5054 171.21C67.912 171.511 68.2206 171.819 68.4314 172.136C68.6572 172.437 68.7702 172.693 68.7702 172.903L67.9571 173.197V171.548C67.9571 171.157 68.0851 170.833 68.3411 170.577C68.597 170.306 68.9207 170.171 69.3122 170.171ZM64.7502 180.221C65.4127 180.221 65.9923 180.055 66.4892 179.724C66.986 179.393 67.3699 178.941 67.6409 178.369C67.927 177.797 68.07 177.157 68.07 176.449C68.07 175.726 67.927 175.079 67.6409 174.507C67.3699 173.935 66.986 173.483 66.4892 173.152C65.9923 172.821 65.4127 172.655 64.7502 172.655C64.1028 172.655 63.5306 172.821 63.0338 173.152C62.5369 173.483 62.1455 173.935 61.8594 174.507C61.5884 175.079 61.4529 175.726 61.4529 176.449C61.4529 177.157 61.5884 177.797 61.8594 178.369C62.1455 178.941 62.5369 179.393 63.0338 179.724C63.5306 180.055 64.1028 180.221 64.7502 180.221ZM78.6152 170.171C79.2476 170.171 79.8272 170.269 80.3542 170.464C80.8812 170.66 81.3329 170.909 81.7093 171.21C82.1007 171.511 82.4018 171.819 82.6126 172.136C82.8385 172.437 82.9514 172.693 82.9514 172.903L82.3642 173.197V171.548C82.3642 171.157 82.4922 170.833 82.7481 170.577C83.0041 170.306 83.3278 170.171 83.7192 170.171C84.1107 170.171 84.4344 170.299 84.6904 170.555C84.9463 170.811 85.0743 171.142 85.0743 171.548V181.598C85.0743 182.908 84.7882 183.955 84.2161 184.738C83.659 185.536 82.9213 186.108 82.0029 186.454C81.0844 186.815 80.0983 186.996 79.0443 186.996C78.7432 186.996 78.3518 186.958 77.87 186.883C77.3882 186.808 76.929 186.717 76.4923 186.612C76.0557 186.507 75.7245 186.409 75.4986 186.318C75.0469 186.123 74.7308 185.874 74.5501 185.573C74.3845 185.287 74.3544 184.978 74.4598 184.647C74.5953 184.211 74.8136 183.909 75.1147 183.744C75.4158 183.593 75.732 183.578 76.0632 183.699C76.2138 183.744 76.4622 183.834 76.8085 183.97C77.1548 184.105 77.5312 184.226 77.9377 184.331C78.3593 184.451 78.7282 184.512 79.0443 184.512C80.1735 184.512 81.0092 184.286 81.5512 183.834C82.0932 183.382 82.3642 182.758 82.3642 181.96V179.995L82.6352 180.198C82.6352 180.394 82.5298 180.635 82.319 180.921C82.1233 181.192 81.8448 181.463 81.4834 181.734C81.1371 182.005 80.7231 182.238 80.2413 182.434C79.7595 182.615 79.2476 182.705 78.7056 182.705C77.6366 182.705 76.673 182.441 75.8148 181.915C74.9566 181.373 74.2791 180.635 73.7822 179.701C73.2854 178.753 73.037 177.669 73.037 176.449C73.037 175.215 73.2854 174.131 73.7822 173.197C74.2791 172.249 74.9491 171.511 75.7922 170.984C76.6354 170.442 77.5764 170.171 78.6152 170.171ZM79.0443 172.655C78.3668 172.655 77.7721 172.821 77.2602 173.152C76.7483 173.483 76.3493 173.935 76.0632 174.507C75.7772 175.079 75.6341 175.726 75.6341 176.449C75.6341 177.157 75.7772 177.797 76.0632 178.369C76.3493 178.941 76.7483 179.393 77.2602 179.724C77.7721 180.055 78.3668 180.221 79.0443 180.221C79.7369 180.221 80.3392 180.055 80.8511 179.724C81.363 179.393 81.762 178.941 82.048 178.369C82.3341 177.797 82.4771 177.157 82.4771 176.449C82.4771 175.726 82.3341 175.079 82.048 174.507C81.762 173.935 81.363 173.483 80.8511 173.152C80.3392 172.821 79.7369 172.655 79.0443 172.655ZM93.2534 182.705C91.9737 182.705 90.8595 182.441 89.911 181.915C88.9775 181.373 88.2548 180.642 87.7429 179.724C87.2461 178.805 86.9976 177.767 86.9976 176.607C86.9976 175.252 87.2686 174.1 87.8107 173.152C88.3677 172.188 89.0904 171.451 89.9787 170.939C90.867 170.427 91.8081 170.171 92.8018 170.171C93.5696 170.171 94.2923 170.329 94.9698 170.645C95.6624 170.961 96.2722 171.398 96.7991 171.955C97.3261 172.497 97.7401 173.129 98.0413 173.852C98.3574 174.575 98.5155 175.343 98.5155 176.156C98.5005 176.517 98.3574 176.811 98.0864 177.036C97.8154 177.262 97.4992 177.375 97.1379 177.375H88.5108L87.8333 175.117H96.1216L95.6248 175.568V174.959C95.5947 174.522 95.4366 174.131 95.1505 173.784C94.8795 173.438 94.5332 173.167 94.1116 172.971C93.7051 172.76 93.2685 172.655 92.8018 172.655C92.3501 172.655 91.9285 172.715 91.537 172.836C91.1456 172.956 90.8068 173.159 90.5208 173.445C90.2347 173.732 90.0089 174.115 89.8432 174.597C89.6776 175.079 89.5948 175.689 89.5948 176.427C89.5948 177.24 89.7604 177.932 90.0917 178.504C90.438 179.061 90.8746 179.49 91.4015 179.792C91.9436 180.078 92.5157 180.221 93.1179 180.221C93.675 180.221 94.1192 180.176 94.4504 180.085C94.7816 179.995 95.0451 179.889 95.2408 179.769C95.4516 179.634 95.6398 179.521 95.8054 179.43C96.0764 179.295 96.3324 179.227 96.5733 179.227C96.9045 179.227 97.1755 179.34 97.3863 179.566C97.6122 179.792 97.7251 180.055 97.7251 180.356C97.7251 180.763 97.5143 181.132 97.0927 181.463C96.7013 181.794 96.1517 182.088 95.4441 182.344C94.7365 182.585 94.0062 182.705 93.2534 182.705ZM113.966 166.67C114.749 166.67 115.479 166.896 116.156 167.348C116.849 167.799 117.406 168.409 117.828 169.177C118.249 169.945 118.46 170.803 118.46 171.752C118.46 172.685 118.249 173.536 117.828 174.304C117.406 175.072 116.849 175.689 116.156 176.156C115.479 176.607 114.749 176.833 113.966 176.833H109.81L110.036 176.427V181.101C110.036 181.493 109.916 181.824 109.675 182.095C109.434 182.351 109.118 182.479 108.726 182.479C108.35 182.479 108.041 182.351 107.8 182.095C107.559 181.824 107.439 181.493 107.439 181.101V168.048C107.439 167.656 107.567 167.333 107.823 167.077C108.094 166.806 108.425 166.67 108.817 166.67H113.966ZM113.966 174.259C114.252 174.259 114.53 174.138 114.801 173.897C115.072 173.656 115.298 173.348 115.479 172.971C115.66 172.58 115.75 172.173 115.75 171.752C115.75 171.315 115.66 170.909 115.479 170.532C115.298 170.156 115.072 169.855 114.801 169.629C114.53 169.388 114.252 169.267 113.966 169.267H109.765L110.036 168.861V174.62L109.788 174.259H113.966ZM122.176 182.479C121.784 182.479 121.461 182.351 121.205 182.095C120.949 181.824 120.821 181.493 120.821 181.101V171.774C120.821 171.383 120.949 171.059 121.205 170.803C121.461 170.532 121.784 170.397 122.176 170.397C122.567 170.397 122.891 170.532 123.147 170.803C123.403 171.059 123.531 171.383 123.531 171.774V173.897L123.373 172.384C123.538 172.023 123.749 171.707 124.005 171.436C124.276 171.149 124.577 170.916 124.909 170.735C125.24 170.54 125.594 170.397 125.97 170.306C126.346 170.216 126.723 170.171 127.099 170.171C127.551 170.171 127.927 170.299 128.228 170.555C128.545 170.811 128.703 171.112 128.703 171.458C128.703 171.955 128.575 172.316 128.319 172.542C128.063 172.753 127.784 172.858 127.483 172.858C127.197 172.858 126.934 172.806 126.693 172.7C126.467 172.595 126.203 172.542 125.902 172.542C125.631 172.542 125.353 172.61 125.067 172.745C124.796 172.866 124.54 173.062 124.299 173.333C124.073 173.604 123.885 173.942 123.734 174.349C123.599 174.74 123.531 175.207 123.531 175.749V181.101C123.531 181.493 123.403 181.824 123.147 182.095C122.891 182.351 122.567 182.479 122.176 182.479ZM141.827 176.449C141.827 177.684 141.549 178.775 140.991 179.724C140.449 180.657 139.712 181.388 138.778 181.915C137.86 182.441 136.828 182.705 135.684 182.705C134.54 182.705 133.501 182.441 132.568 181.915C131.649 181.388 130.911 180.657 130.354 179.724C129.812 178.775 129.541 177.684 129.541 176.449C129.541 175.215 129.812 174.131 130.354 173.197C130.911 172.249 131.649 171.511 132.568 170.984C133.501 170.442 134.54 170.171 135.684 170.171C136.828 170.171 137.86 170.442 138.778 170.984C139.712 171.511 140.449 172.249 140.991 173.197C141.549 174.131 141.827 175.215 141.827 176.449ZM139.117 176.449C139.117 175.681 138.959 175.019 138.643 174.462C138.342 173.89 137.928 173.445 137.401 173.129C136.889 172.813 136.317 172.655 135.684 172.655C135.052 172.655 134.472 172.813 133.945 173.129C133.433 173.445 133.019 173.89 132.703 174.462C132.402 175.019 132.251 175.681 132.251 176.449C132.251 177.202 132.402 177.864 132.703 178.437C133.019 178.994 133.433 179.43 133.945 179.746C134.472 180.063 135.052 180.221 135.684 180.221C136.317 180.221 136.889 180.063 137.401 179.746C137.928 179.43 138.342 178.994 138.643 178.437C138.959 177.864 139.117 177.202 139.117 176.449ZM144.334 170.622H149.687C150.048 170.622 150.349 170.743 150.59 170.984C150.831 171.225 150.952 171.526 150.952 171.887C150.952 172.233 150.831 172.527 150.59 172.768C150.349 172.994 150.048 173.107 149.687 173.107H144.334C143.973 173.107 143.672 172.986 143.431 172.745C143.19 172.504 143.07 172.203 143.07 171.842C143.07 171.496 143.19 171.21 143.431 170.984C143.672 170.743 143.973 170.622 144.334 170.622ZM146.751 167.799C147.142 167.799 147.459 167.935 147.699 168.206C147.955 168.462 148.083 168.786 148.083 169.177V179.227C148.083 179.438 148.121 179.611 148.196 179.746C148.287 179.882 148.4 179.98 148.535 180.04C148.686 180.1 148.844 180.13 149.009 180.13C149.19 180.13 149.356 180.1 149.506 180.04C149.657 179.965 149.83 179.927 150.026 179.927C150.236 179.927 150.425 180.025 150.59 180.221C150.771 180.416 150.861 180.687 150.861 181.034C150.861 181.455 150.628 181.802 150.161 182.073C149.709 182.344 149.22 182.479 148.693 182.479C148.377 182.479 148.023 182.457 147.632 182.411C147.255 182.351 146.894 182.223 146.548 182.027C146.216 181.817 145.938 181.5 145.712 181.079C145.486 180.657 145.373 180.078 145.373 179.34V169.177C145.373 168.786 145.501 168.462 145.757 168.206C146.028 167.935 146.359 167.799 146.751 167.799ZM159.021 182.705C157.741 182.705 156.627 182.441 155.678 181.915C154.745 181.373 154.022 180.642 153.51 179.724C153.013 178.805 152.765 177.767 152.765 176.607C152.765 175.252 153.036 174.1 153.578 173.152C154.135 172.188 154.858 171.451 155.746 170.939C156.634 170.427 157.575 170.171 158.569 170.171C159.337 170.171 160.06 170.329 160.737 170.645C161.43 170.961 162.04 171.398 162.567 171.955C163.093 172.497 163.508 173.129 163.809 173.852C164.125 174.575 164.283 175.343 164.283 176.156C164.268 176.517 164.125 176.811 163.854 177.036C163.583 177.262 163.267 177.375 162.905 177.375H154.278L153.601 175.117H161.889L161.392 175.568V174.959C161.362 174.522 161.204 174.131 160.918 173.784C160.647 173.438 160.301 173.167 159.879 172.971C159.472 172.76 159.036 172.655 158.569 172.655C158.117 172.655 157.696 172.715 157.304 172.836C156.913 172.956 156.574 173.159 156.288 173.445C156.002 173.732 155.776 174.115 155.611 174.597C155.445 175.079 155.362 175.689 155.362 176.427C155.362 177.24 155.528 177.932 155.859 178.504C156.205 179.061 156.642 179.49 157.169 179.792C157.711 180.078 158.283 180.221 158.885 180.221C159.442 180.221 159.887 180.176 160.218 180.085C160.549 179.995 160.812 179.889 161.008 179.769C161.219 179.634 161.407 179.521 161.573 179.43C161.844 179.295 162.1 179.227 162.341 179.227C162.672 179.227 162.943 179.34 163.154 179.566C163.38 179.792 163.492 180.055 163.492 180.356C163.492 180.763 163.282 181.132 162.86 181.463C162.469 181.794 161.919 182.088 161.211 182.344C160.504 182.585 159.774 182.705 159.021 182.705ZM172.026 170.171C172.884 170.171 173.629 170.261 174.262 170.442C174.909 170.622 175.406 170.878 175.752 171.21C176.113 171.526 176.294 171.91 176.294 172.361C176.294 172.663 176.204 172.949 176.023 173.22C175.842 173.476 175.579 173.604 175.233 173.604C174.992 173.604 174.789 173.573 174.623 173.513C174.472 173.438 174.337 173.348 174.216 173.242C174.096 173.137 173.953 173.039 173.787 172.949C173.637 172.858 173.403 172.791 173.087 172.745C172.786 172.685 172.56 172.655 172.41 172.655C171.642 172.655 170.987 172.821 170.445 173.152C169.918 173.483 169.511 173.935 169.225 174.507C168.939 175.064 168.796 175.711 168.796 176.449C168.796 177.172 168.939 177.819 169.225 178.391C169.526 178.948 169.933 179.393 170.445 179.724C170.972 180.055 171.574 180.221 172.252 180.221C172.628 180.221 172.952 180.198 173.223 180.153C173.494 180.108 173.72 180.04 173.9 179.95C174.111 179.829 174.299 179.701 174.465 179.566C174.63 179.43 174.879 179.363 175.21 179.363C175.602 179.363 175.903 179.49 176.113 179.746C176.324 179.987 176.43 180.288 176.43 180.65C176.43 181.026 176.219 181.373 175.797 181.689C175.376 181.99 174.819 182.238 174.126 182.434C173.449 182.615 172.711 182.705 171.913 182.705C170.723 182.705 169.692 182.434 168.819 181.892C167.946 181.335 167.268 180.582 166.786 179.634C166.319 178.685 166.086 177.624 166.086 176.449C166.086 175.215 166.335 174.131 166.831 173.197C167.343 172.249 168.043 171.511 168.932 170.984C169.835 170.442 170.866 170.171 172.026 170.171ZM178.519 170.622H183.872C184.233 170.622 184.534 170.743 184.775 170.984C185.016 171.225 185.136 171.526 185.136 171.887C185.136 172.233 185.016 172.527 184.775 172.768C184.534 172.994 184.233 173.107 183.872 173.107H178.519C178.158 173.107 177.857 172.986 177.616 172.745C177.375 172.504 177.255 172.203 177.255 171.842C177.255 171.496 177.375 171.21 177.616 170.984C177.857 170.743 178.158 170.622 178.519 170.622ZM180.936 167.799C181.327 167.799 181.643 167.935 181.884 168.206C182.14 168.462 182.268 168.786 182.268 169.177V179.227C182.268 179.438 182.306 179.611 182.381 179.746C182.472 179.882 182.584 179.98 182.72 180.04C182.871 180.1 183.029 180.13 183.194 180.13C183.375 180.13 183.541 180.1 183.691 180.04C183.842 179.965 184.015 179.927 184.211 179.927C184.421 179.927 184.61 180.025 184.775 180.221C184.956 180.416 185.046 180.687 185.046 181.034C185.046 181.455 184.813 181.802 184.346 182.073C183.894 182.344 183.405 182.479 182.878 182.479C182.562 182.479 182.208 182.457 181.817 182.411C181.44 182.351 181.079 182.223 180.733 182.027C180.401 181.817 180.123 181.5 179.897 181.079C179.671 180.657 179.558 180.078 179.558 179.34V169.177C179.558 168.786 179.686 168.462 179.942 168.206C180.213 167.935 180.544 167.799 180.936 167.799ZM190.177 181.101C190.177 181.493 190.049 181.824 189.793 182.095C189.537 182.351 189.213 182.479 188.822 182.479C188.43 182.479 188.107 182.351 187.851 182.095C187.595 181.824 187.467 181.493 187.467 181.101V171.774C187.467 171.383 187.595 171.059 187.851 170.803C188.107 170.532 188.43 170.397 188.822 170.397C189.213 170.397 189.537 170.532 189.793 170.803C190.049 171.059 190.177 171.383 190.177 171.774V181.101ZM188.799 168.929C188.287 168.929 187.926 168.846 187.715 168.68C187.504 168.515 187.399 168.221 187.399 167.799V167.37C187.399 166.934 187.512 166.64 187.738 166.49C187.979 166.324 188.34 166.241 188.822 166.241C189.349 166.241 189.718 166.324 189.928 166.49C190.139 166.655 190.245 166.949 190.245 167.37V167.799C190.245 168.236 190.132 168.537 189.906 168.703C189.68 168.853 189.311 168.929 188.799 168.929ZM204.683 176.449C204.683 177.684 204.405 178.775 203.848 179.724C203.306 180.657 202.568 181.388 201.634 181.915C200.716 182.441 199.685 182.705 198.54 182.705C197.396 182.705 196.357 182.441 195.424 181.915C194.505 181.388 193.768 180.657 193.21 179.724C192.668 178.775 192.397 177.684 192.397 176.449C192.397 175.215 192.668 174.131 193.21 173.197C193.768 172.249 194.505 171.511 195.424 170.984C196.357 170.442 197.396 170.171 198.54 170.171C199.685 170.171 200.716 170.442 201.634 170.984C202.568 171.511 203.306 172.249 203.848 173.197C204.405 174.131 204.683 175.215 204.683 176.449ZM201.973 176.449C201.973 175.681 201.815 175.019 201.499 174.462C201.198 173.89 200.784 173.445 200.257 173.129C199.745 172.813 199.173 172.655 198.54 172.655C197.908 172.655 197.328 172.813 196.801 173.129C196.289 173.445 195.875 173.89 195.559 174.462C195.258 175.019 195.108 175.681 195.108 176.449C195.108 177.202 195.258 177.864 195.559 178.437C195.875 178.994 196.289 179.43 196.801 179.746C197.328 180.063 197.908 180.221 198.54 180.221C199.173 180.221 199.745 180.063 200.257 179.746C200.784 179.43 201.198 178.994 201.499 178.437C201.815 177.864 201.973 177.202 201.973 176.449ZM213.514 170.171C214.628 170.171 215.471 170.404 216.044 170.871C216.631 171.338 217.03 171.962 217.241 172.745C217.466 173.513 217.579 174.371 217.579 175.32V181.101C217.579 181.493 217.451 181.824 217.195 182.095C216.939 182.351 216.616 182.479 216.224 182.479C215.833 182.479 215.509 182.351 215.253 182.095C214.997 181.824 214.869 181.493 214.869 181.101V175.32C214.869 174.823 214.801 174.379 214.666 173.988C214.545 173.581 214.32 173.257 213.988 173.016C213.657 172.775 213.183 172.655 212.566 172.655C211.963 172.655 211.451 172.775 211.03 173.016C210.623 173.257 210.307 173.581 210.081 173.988C209.871 174.379 209.765 174.823 209.765 175.32V181.101C209.765 181.493 209.637 181.824 209.381 182.095C209.125 182.351 208.802 182.479 208.41 182.479C208.019 182.479 207.695 182.351 207.439 182.095C207.183 181.824 207.055 181.493 207.055 181.101V171.774C207.055 171.383 207.183 171.059 207.439 170.803C207.695 170.532 208.019 170.397 208.41 170.397C208.802 170.397 209.125 170.532 209.381 170.803C209.637 171.059 209.765 171.383 209.765 171.774V172.745L209.426 172.678C209.562 172.422 209.758 172.151 210.014 171.865C210.27 171.563 210.571 171.285 210.917 171.029C211.263 170.773 211.655 170.57 212.091 170.419C212.528 170.254 213.002 170.171 213.514 170.171Z" fill="#97C6FF"/>
<path d="M2.814 62.882H115.334C116.386 62.882 117.239 63.735 117.239 64.787C117.239 65.839 116.386 66.692 115.334 66.692H2.814C1.762 66.692 0.908997 65.839 0.908997 64.787C0.908997 63.735 1.762 62.882 2.814 62.882Z" fill="#97C6FF"/>
<path d="M329.099 64.787C329.099 65.839 328.246 66.692 327.194 66.692H205.644C204.592 66.692 203.739 65.839 203.739 64.787C203.739 63.735 204.592 62.882 205.644 62.882H327.194C328.246 62.882 329.099 63.735 329.099 64.787Z" fill="#97C6FF"/>
<path d="M132.234 5.66199H189.44C194.133 5.66199 197.938 9.46699 197.938 14.16V73.843C197.938 78.536 194.133 82.341 189.44 82.341H156.592L159.923 88.085C161.014 89.967 159.023 92.129 157.058 91.197L138.397 82.341H132.234C127.541 82.341 123.736 78.536 123.736 73.843V14.16C123.736 9.46699 127.54 5.66199 132.234 5.66199Z" fill="#97C6FF"/>
<path d="M160.815 39.37L184.128 39.737L185.647 40.837V59.121C185.647 59.121 189.314 58.44 189.681 62.107C190.048 65.774 190.572 69.022 185.752 69.494L185.176 71.328C185.176 71.328 184.338 72.638 181.875 72.952C179.413 73.266 159.557 73.057 159.557 73.057C159.557 73.057 158.038 70.647 157.881 69.233L156.205 69.443C156.205 69.443 156.048 73.006 154.267 72.796C152.486 72.586 153.062 68.814 152.852 68.867C152.642 68.919 141.012 69.181 141.012 69.181C141.012 69.181 141.431 72.796 139.702 73.005C137.973 73.215 138.078 69.023 138.078 69.023L134.358 68.499C134.358 68.499 132.42 67.242 132.367 63.889C132.315 60.536 132.367 33.032 132.367 33.032C132.367 33.032 132.419 27.164 135.51 27.164C138.601 27.164 159.138 27.426 159.138 27.426C159.138 27.426 161.286 28.264 161.496 30.517C161.706 32.769 160.815 39.37 160.815 39.37Z" fill="#447BCC"/>
<path d="M153.557 19.971C153.557 19.971 152.044 21.786 151.271 20.61C150.498 19.433 150.397 17.416 150.397 17.416L143.673 17.349C143.673 17.349 143.471 20.576 142.261 20.845C141.051 21.114 139.807 19.231 140.076 17.214C140.345 15.197 144.48 13.583 147.203 13.583C149.927 13.583 153.86 13.583 153.557 19.971Z" fill="#447BCC"/>
<path d="M132.717 36.874C133.212 36.874 133.613 36.473 133.613 35.978V30.317C133.613 29.209 134.515 28.308 135.623 28.308H158.319C159.428 28.308 160.329 29.209 160.329 30.317V38.371C158.684 38.626 157.421 40.052 157.421 41.768V58.164H156.575C156.402 58.164 156.233 58.177 156.067 58.202V31.542C156.067 31.047 155.666 30.646 155.171 30.646C154.676 30.646 154.275 31.047 154.275 31.542V59.049C153.577 59.679 153.137 60.59 153.137 61.602V66.834C153.137 67.235 153.207 67.621 153.334 67.979H135.623C134.514 67.979 133.613 67.078 133.613 65.97V40.21C133.613 39.715 133.212 39.314 132.717 39.314C132.222 39.314 131.821 39.715 131.821 40.21V65.97C131.821 68.066 133.527 69.771 135.623 69.771H137.257V71.378C137.257 72.732 138.358 73.833 139.712 73.833C141.066 73.833 142.167 72.732 142.167 71.378V69.771H151.775V71.379C151.775 72.733 152.876 73.834 154.23 73.834C155.584 73.834 156.685 72.733 156.685 71.379V70.272H157.421V70.485C157.421 72.381 158.963 73.923 160.859 73.923H182.993C184.889 73.923 186.431 72.381 186.431 70.485V70.272H187.277C189.173 70.272 190.715 68.73 190.715 66.834V61.602C190.715 59.706 189.173 58.164 187.277 58.164H186.431V57.261C186.431 56.766 186.03 56.365 185.535 56.365C185.04 56.365 184.639 56.766 184.639 57.261V70.485C184.639 71.393 183.901 72.131 182.993 72.131H160.859C159.951 72.131 159.213 71.393 159.213 70.485V50.098C159.702 50.366 160.263 50.519 160.859 50.519H162.083V51.477C161.234 51.556 160.567 52.272 160.567 53.141V54.056C160.567 54.978 161.317 55.728 162.239 55.728H166.787C167.709 55.728 168.459 54.978 168.459 54.056V53.141C168.459 52.271 167.792 51.555 166.942 51.477V50.519H176.911V51.477C176.062 51.556 175.394 52.272 175.394 53.141V54.056C175.394 54.978 176.144 55.728 177.066 55.728H181.614C182.536 55.728 183.286 54.978 183.286 54.056V53.141C183.286 52.271 182.619 51.555 181.769 51.477V50.519H182.992C183.588 50.519 184.149 50.366 184.638 50.098V53.059C184.638 53.554 185.039 53.955 185.534 53.955C186.029 53.955 186.43 53.554 186.43 53.059V41.769C186.43 39.873 184.888 38.331 182.992 38.331H175.977V36.844C175.977 34.61 174.159 32.792 171.925 32.792C169.691 32.792 167.873 34.61 167.873 36.844V38.331H162.12V30.318C162.12 28.222 160.414 26.517 158.318 26.517H153.033V21.628C153.92 21.271 154.549 20.404 154.549 19.39V17.953C154.549 15.091 152.221 12.763 149.36 12.763H144.581C141.72 12.763 139.392 15.091 139.392 17.953V19.39C139.392 20.403 140.021 21.271 140.908 21.628V26.517H135.622C133.526 26.517 131.82 28.222 131.82 30.318V35.979C131.821 36.473 132.222 36.874 132.717 36.874ZM186.43 68.48V59.956H187.276C188.184 59.956 188.922 60.694 188.922 61.602V66.834C188.922 67.742 188.184 68.48 187.276 68.48H186.43ZM163.874 40.121H165.15V51.467H163.874V49.631C163.874 49.628 163.875 49.625 163.875 49.622C163.875 49.619 163.874 49.616 163.874 49.613V40.121ZM174.186 38.33H169.665V36.843C169.665 35.597 170.679 34.583 171.925 34.583C173.171 34.583 174.185 35.597 174.185 36.843V38.33H174.186ZM178.702 40.122H179.978V51.467H178.702V40.122ZM181.769 48.726V40.122H182.992C183.9 40.122 184.638 40.86 184.638 41.768V47.08C184.638 47.988 183.9 48.726 182.992 48.726H181.769ZM177.185 53.259H181.494V53.935H177.185V53.259ZM166.941 48.726V40.122H176.91V48.726H166.941ZM162.357 53.259H166.666V53.935H162.357V53.259ZM153.567 69.771H154.79C154.824 69.792 154.858 69.811 154.893 69.83V71.378C154.893 71.743 154.595 72.041 154.23 72.041C153.864 72.041 153.567 71.743 153.567 71.378V69.771ZM139.049 71.378V69.771H140.375V71.378C140.375 71.744 140.078 72.041 139.712 72.041C139.346 72.041 139.049 71.744 139.049 71.378ZM157.421 59.955V68.479H156.575C155.667 68.479 154.929 67.741 154.929 66.833V61.601C154.929 60.693 155.667 59.955 156.575 59.955H157.421ZM159.212 41.768C159.212 40.86 159.95 40.122 160.858 40.122H162.082V48.726H160.858C159.951 48.726 159.212 47.988 159.212 47.08V41.768ZM152.758 19.39C152.758 19.732 152.48 20.01 152.138 20.01C151.796 20.01 151.517 19.732 151.517 19.39V17.953C151.517 16.764 150.549 15.796 149.36 15.796H144.581C143.392 15.796 142.424 16.764 142.424 17.953V19.39C142.424 19.732 142.146 20.01 141.804 20.01C141.462 20.01 141.184 19.732 141.184 19.39V17.953C141.184 16.08 142.708 14.555 144.582 14.555H149.361C151.234 14.555 152.758 16.079 152.758 17.953V19.39ZM151.242 26.516H142.7V21.627C143.587 21.271 144.216 20.403 144.216 19.389V17.952C144.216 17.751 144.38 17.587 144.581 17.587H149.36C149.561 17.587 149.725 17.751 149.725 17.952V19.389C149.725 20.403 150.354 21.27 151.242 21.627V26.516Z" fill="#214F9A"/>
<path d="M149.704 30.646C149.209 30.646 148.808 31.047 148.808 31.542V63.019C148.808 63.514 149.209 63.915 149.704 63.915C150.199 63.915 150.6 63.514 150.6 63.019V31.542C150.6 31.047 150.199 30.646 149.704 30.646Z" fill="#214F9A"/>
<path d="M144.238 30.646C143.743 30.646 143.342 31.047 143.342 31.542V63.019C143.342 63.514 143.743 63.915 144.238 63.915C144.733 63.915 145.134 63.514 145.134 63.019V31.542C145.134 31.047 144.733 30.646 144.238 30.646Z" fill="#214F9A"/>
<path d="M138.771 30.646C138.276 30.646 137.875 31.047 137.875 31.542V63.019C137.875 63.514 138.276 63.915 138.771 63.915C139.266 63.915 139.667 63.514 139.667 63.019V31.542C139.667 31.047 139.266 30.646 138.771 30.646Z" fill="#214F9A"/>
<path d="M179.344 68.907C180.539 68.907 181.511 67.935 181.511 66.74V60.175C181.511 58.98 180.539 58.008 179.344 58.008H164.508C163.313 58.008 162.341 58.98 162.341 60.175V66.74C162.341 67.935 163.313 68.907 164.508 68.907H179.344ZM179.344 67.115H164.508C164.301 67.115 164.133 66.947 164.133 66.74V60.175C164.133 59.968 164.301 59.8 164.508 59.8H179.344C179.551 59.8 179.719 59.968 179.719 60.175V66.74C179.719 66.947 179.55 67.115 179.344 67.115Z" fill="#214F9A"/>
<path d="M193.521 88.858H188.041C187.171 88.858 186.464 88.152 186.464 87.281C186.464 86.41 187.17 85.704 188.041 85.704H193.521C197.949 85.704 201.551 82.155 201.551 77.793V76.629C201.551 75.758 202.257 75.052 203.128 75.052C203.998 75.052 204.705 75.758 204.705 76.629V77.793C204.704 83.895 199.687 88.858 193.521 88.858Z" fill="#97C6FF"/>
<path d="M203.128 73.065C202.258 73.065 201.551 72.359 201.551 71.488C201.551 70.617 202.257 69.902 203.128 69.902C203.998 69.902 204.705 70.598 204.705 71.469V71.489C204.704 72.359 203.998 73.065 203.128 73.065Z" fill="#97C6FF"/>
<path d="M119.501 10.555C119.38 10.555 119.257 10.541 119.134 10.511C118.287 10.309 117.764 9.459 117.966 8.612C119.16 3.597 123.637 0.0939941 128.851 0.0939941H134.488C135.359 0.0939941 136.064 0.799998 136.064 1.67C136.064 2.541 135.358 3.24699 134.488 3.24699H128.851C125.103 3.24699 121.887 5.754 121.032 9.343C120.861 10.068 120.214 10.555 119.501 10.555Z" fill="#97C6FF"/>
<path d="M119.245 16.629C118.374 16.629 117.668 15.923 117.668 15.052C117.668 14.181 118.374 13.455 119.245 13.455C120.116 13.455 120.821 14.14 120.821 15.011V15.052C120.822 15.924 120.116 16.629 119.245 16.629Z" fill="#97C6FF"/>
</svg>
